<svg width="49" height="52" viewBox="0 0 49 52" fill="none" xmlns="http://www.w3.org/2000/svg">
<path d="M47.4508 41.7L32.2108 23.11L31.9908 6.35999L34.7008 6.32999C36.1908 6.30999 37.3908 5.03998 37.3708 3.49998C37.3508 1.96999 36.1108 0.719983 34.6308 0.739983L12.9608 1.02998C11.4708 1.03998 10.2708 2.31998 10.2908 3.84998C10.3108 5.38998 11.5408 6.62999 13.0308 6.60999L15.7408 6.56998L15.9608 23.32L1.20077 42.3C0.350768 43.4 -0.0192323 44.64 0.00076772 45.86C0.0607677 48.74 2.29077 51.42 5.49077 51.38L43.4008 50.88C46.6208 50.84 48.7808 48.11 48.7508 45.23C48.7308 44 48.3308 42.78 47.4508 41.7ZM35.9008 34.07C35.7208 34.22 35.5008 34.29 35.2808 34.29C34.9808 34.29 34.6908 34.16 34.5008 33.92L32.7608 31.75C32.4208 31.31 32.4908 30.69 32.9208 30.34C33.3508 30 33.9808 30.07 34.3308 30.5L36.0608 32.67C36.4008 33.1 36.3308 33.73 35.9008 34.07ZM44.0708 44.3C43.8908 44.45 43.6708 44.52 43.4508 44.52C43.1508 44.52 42.8608 44.39 42.6608 44.14L36.9308 36.97C36.5908 36.54 36.6608 35.91 37.0908 35.56C37.5208 35.22 38.1508 35.29 38.5008 35.72L44.2308 42.89C44.5708 43.33 44.5008 43.96 44.0708 44.3Z" fill="#268BD3"/>
</svg>
